<svg width="272" height="63" viewBox="0 0 272 63" fill="none" xmlns="http://www.w3.org/2000/svg">
<path d="M14.9919 63H248.255C253.87 63 258.734 59.1065 259.963 53.628L268.717 14.628C270.4 7.12717 264.696 0 257.008 0H23.7453C18.1304 0 13.2662 3.89346 12.0366 9.37203L3.28317 48.372C1.59967 55.8728 7.30447 63 14.9919 63Z" fill="#0BDB84"/>
<path d="M48.7088 40.792C48.7088 42.4987 47.9941 43.7573 46.5648 44.568C45.1354 45.3787 42.9594 45.784 40.0368 45.784C38.6074 45.784 37.4021 45.688 36.4208 45.496C35.4608 45.3253 34.6714 45.0693 34.0528 44.728C33.4554 44.3867 33.0181 43.9707 32.7408 43.48C32.4848 42.9893 32.3568 42.4347 32.3568 41.816C32.3568 40.92 32.6021 40.216 33.0928 39.704C33.6048 39.2133 34.3194 38.8507 35.2368 38.616V38.296C34.6821 38.0827 34.2341 37.784 33.8928 37.4C33.5728 37.016 33.4128 36.5147 33.4128 35.896C33.4128 35.0853 33.6901 34.4773 34.2448 34.072C34.7994 33.6453 35.5141 33.3253 36.3888 33.112V32.952C35.3861 32.4827 34.6074 31.8213 34.0528 30.968C33.4981 30.1147 33.2208 29.0907 33.2208 27.896C33.2208 27.0213 33.3808 26.232 33.7008 25.528C34.0208 24.8027 34.4688 24.1947 35.0448 23.704C35.6421 23.192 36.3461 22.7973 37.1568 22.52C37.9888 22.2427 38.9168 22.104 39.9408 22.104C41.0928 22.104 42.1274 22.2853 43.0448 22.648V22.104C43.0448 21.464 43.2261 20.9307 43.5888 20.504C43.9514 20.0773 44.5061 19.864 45.2528 19.864H48.2608V22.616H44.4208V23.384C45.1461 23.8747 45.7008 24.504 46.0848 25.272C46.4688 26.0187 46.6608 26.8933 46.6608 27.896C46.6608 28.7707 46.5008 29.5707 46.1808 30.296C45.8608 31 45.4021 31.608 44.8048 32.12C44.2288 32.6107 43.5248 32.9947 42.6928 33.272C41.8821 33.528 40.9648 33.656 39.9408 33.656C39.2154 33.656 38.5328 33.592 37.8928 33.464C37.5088 33.5707 37.1248 33.752 36.7408 34.008C36.3568 34.264 36.1648 34.616 36.1648 35.064C36.1648 35.576 36.4101 35.896 36.9008 36.024C37.3914 36.152 37.9994 36.216 38.7248 36.216H42.4368C44.6554 36.216 46.2554 36.6427 47.2368 37.496C48.2181 38.328 48.7088 39.4267 48.7088 40.792ZM45.4448 41.016C45.4448 40.4613 45.2208 40.0133 44.7728 39.672C44.3248 39.352 43.5141 39.192 42.3408 39.192H36.6128C35.8021 39.576 35.3968 40.1947 35.3968 41.048C35.3968 41.6667 35.6528 42.2 36.1648 42.648C36.6981 43.096 37.5728 43.32 38.7888 43.32H41.3808C42.7034 43.32 43.7061 43.1173 44.3888 42.712C45.0928 42.328 45.4448 41.7627 45.4448 41.016ZM39.9408 31.256C41.0714 31.256 41.9034 30.9893 42.4368 30.456C42.9701 29.9227 43.2368 29.208 43.2368 28.312V27.448C43.2368 26.552 42.9701 25.8373 42.4368 25.304C41.9034 24.7707 41.0714 24.504 39.9408 24.504C38.8101 24.504 37.9781 24.7707 37.4448 25.304C36.9114 25.8373 36.6448 26.552 36.6448 27.448V28.312C36.6448 29.208 36.9114 29.9227 37.4448 30.456C37.9781 30.9893 38.8101 31.256 39.9408 31.256ZM59.6083 39.384C58.3496 39.384 57.2189 39.1813 56.2163 38.776C55.2136 38.3707 54.3709 37.7947 53.6883 37.048C53.0056 36.3013 52.4829 35.4053 52.1203 34.36C51.7576 33.2933 51.5763 32.0987 51.5763 30.776C51.5763 29.4533 51.7576 28.2587 52.1203 27.192C52.5043 26.1253 53.0269 25.2187 53.6883 24.472C54.3709 23.704 55.1923 23.1173 56.1523 22.712C57.1123 22.3067 58.1789 22.104 59.3523 22.104C60.5043 22.104 61.5496 22.3067 62.4883 22.712C63.4269 23.096 64.2269 23.6507 64.8883 24.376C65.5496 25.1013 66.0509 25.9653 66.3923 26.968C66.7549 27.9707 66.9363 29.08 66.9363 30.296V31.608H55.0963V32.152C55.0963 33.4533 55.5016 34.52 56.3123 35.352C57.1229 36.1627 58.2429 36.568 59.6723 36.568C60.7389 36.568 61.6456 36.344 62.3923 35.896C63.1603 35.4267 63.7789 34.808 64.2483 34.04L66.4243 35.96C65.8696 36.92 65.0163 37.7307 63.8643 38.392C62.7336 39.0533 61.3149 39.384 59.6083 39.384ZM59.3523 24.76C58.7336 24.76 58.1576 24.8667 57.6243 25.08C57.1123 25.2933 56.6643 25.6027 56.2803 26.008C55.9176 26.392 55.6296 26.8507 55.4163 27.384C55.2029 27.9173 55.0963 28.504 55.0963 29.144V29.368H63.3843V29.048C63.3843 27.7467 63.0109 26.712 62.2643 25.944C61.5389 25.1547 60.5683 24.76 59.3523 24.76ZM79.4358 39C77.9851 39 76.9184 38.616 76.2358 37.848C75.5531 37.0587 75.2118 36.0453 75.2118 34.808V25.304H70.1238V22.488H73.7398C74.3584 22.488 74.7958 22.3707 75.0518 22.136C75.3078 21.88 75.4358 21.432 75.4358 20.792V16.664H78.6998V22.488H85.7397V25.304H78.6998V36.184H85.7397V39H79.4358ZM89.9513 44.728V41.72H105.311V44.728H89.9513ZM116.851 39.384C115.059 39.384 113.512 39.096 112.211 38.52C110.931 37.944 109.896 37.176 109.107 36.216L111.251 34.296C111.976 35.0853 112.787 35.6933 113.683 36.12C114.6 36.5253 115.677 36.728 116.915 36.728C118.045 36.728 118.952 36.536 119.635 36.152C120.339 35.768 120.691 35.1707 120.691 34.36C120.691 34.0187 120.627 33.7307 120.499 33.496C120.371 33.2613 120.189 33.0693 119.955 32.92C119.72 32.7707 119.443 32.6533 119.123 32.568C118.824 32.4827 118.504 32.4187 118.163 32.376L115.539 31.96C114.899 31.8747 114.248 31.736 113.587 31.544C112.925 31.352 112.328 31.0853 111.795 30.744C111.283 30.3813 110.856 29.9227 110.515 29.368C110.195 28.8133 110.035 28.1093 110.035 27.256C110.035 25.5707 110.675 24.2907 111.955 23.416C113.256 22.5413 114.963 22.104 117.075 22.104C118.611 22.104 119.933 22.3387 121.043 22.808C122.173 23.256 123.112 23.8853 123.859 24.696L121.907 26.744C121.48 26.2533 120.872 25.8053 120.083 25.4C119.293 24.9733 118.248 24.76 116.947 24.76C114.621 24.76 113.459 25.496 113.459 26.968C113.459 27.672 113.704 28.1627 114.195 28.44C114.707 28.696 115.304 28.8667 115.987 28.952L118.611 29.368C119.272 29.4747 119.923 29.6133 120.563 29.784C121.224 29.9547 121.811 30.2213 122.323 30.584C122.856 30.9253 123.283 31.3733 123.603 31.928C123.944 32.4827 124.115 33.1867 124.115 34.04C124.115 35.704 123.464 37.016 122.163 37.976C120.883 38.9147 119.112 39.384 116.851 39.384ZM136.998 39C135.548 39 134.481 38.616 133.798 37.848C133.116 37.0587 132.774 36.0453 132.774 34.808V25.304H127.686V22.488H131.302C131.921 22.488 132.358 22.3707 132.614 22.136C132.87 21.88 132.998 21.432 132.998 20.792V16.664H136.262V22.488H143.302V25.304H136.262V36.184H143.302V39H136.998ZM161.338 39C160.335 39 159.578 38.744 159.066 38.232C158.575 37.72 158.276 37.048 158.17 36.216H158.01C157.69 37.2187 157.103 37.9973 156.25 38.552C155.418 39.1067 154.351 39.384 153.05 39.384C151.364 39.384 150.02 38.9467 149.018 38.072C148.015 37.176 147.514 35.9493 147.514 34.392C147.514 32.792 148.1 31.576 149.274 30.744C150.468 29.8907 152.292 29.464 154.746 29.464H157.914V28.184C157.914 25.944 156.73 24.824 154.362 24.824C153.295 24.824 152.431 25.0373 151.77 25.464C151.108 25.8693 150.554 26.4133 150.106 27.096L148.026 25.4C148.495 24.504 149.284 23.736 150.394 23.096C151.503 22.4347 152.932 22.104 154.682 22.104C156.772 22.104 158.415 22.6053 159.61 23.608C160.804 24.6107 161.402 26.0613 161.402 27.96V36.248H163.482V39H161.338ZM154.042 36.824C155.172 36.824 156.1 36.568 156.826 36.056C157.551 35.544 157.914 34.8827 157.914 34.072V31.672H154.81C152.292 31.672 151.034 32.4293 151.034 33.944V34.584C151.034 35.3307 151.3 35.896 151.834 36.28C152.367 36.6427 153.103 36.824 154.042 36.824ZM167.213 36.184H171.597V25.304H167.213V22.488H175.085V26.872H175.277C175.427 26.296 175.64 25.7413 175.917 25.208C176.195 24.6747 176.547 24.216 176.973 23.832C177.4 23.4267 177.923 23.1067 178.541 22.872C179.16 22.616 179.885 22.488 180.717 22.488H182.701V25.816H179.437C178.157 25.816 177.112 26.2 176.301 26.968C175.491 27.7147 175.085 28.728 175.085 30.008V36.184H181.069V39H167.213V36.184ZM194.561 39C193.11 39 192.043 38.616 191.361 37.848C190.678 37.0587 190.337 36.0453 190.337 34.808V25.304H185.249V22.488H188.865C189.483 22.488 189.921 22.3707 190.177 22.136C190.433 21.88 190.561 21.432 190.561 20.792V16.664H193.825V22.488H200.865V25.304H193.825V36.184H200.865V39H194.561ZM213.108 39.384C211.85 39.384 210.719 39.1813 209.716 38.776C208.714 38.3707 207.871 37.7947 207.188 37.048C206.506 36.3013 205.983 35.4053 205.62 34.36C205.258 33.2933 205.076 32.0987 205.076 30.776C205.076 29.4533 205.258 28.2587 205.62 27.192C206.004 26.1253 206.527 25.2187 207.188 24.472C207.871 23.704 208.692 23.1173 209.652 22.712C210.612 22.3067 211.679 22.104 212.852 22.104C214.004 22.104 215.05 22.3067 215.988 22.712C216.927 23.096 217.727 23.6507 218.388 24.376C219.05 25.1013 219.551 25.9653 219.892 26.968C220.255 27.9707 220.436 29.08 220.436 30.296V31.608H208.596V32.152C208.596 33.4533 209.002 34.52 209.812 35.352C210.623 36.1627 211.743 36.568 213.172 36.568C214.239 36.568 215.146 36.344 215.892 35.896C216.66 35.4267 217.279 34.808 217.748 34.04L219.924 35.96C219.37 36.92 218.516 37.7307 217.364 38.392C216.234 39.0533 214.815 39.384 213.108 39.384ZM212.852 24.76C212.234 24.76 211.658 24.8667 211.124 25.08C210.612 25.2933 210.164 25.6027 209.78 26.008C209.418 26.392 209.13 26.8507 208.916 27.384C208.703 27.9173 208.596 28.504 208.596 29.144V29.368H216.884V29.048C216.884 27.7467 216.511 26.712 215.764 25.944C215.039 25.1547 214.068 24.76 212.852 24.76ZM235.528 36.184H235.336C234.845 37.1867 234.194 37.976 233.384 38.552C232.573 39.1067 231.56 39.384 230.344 39.384C228.402 39.384 226.856 38.6587 225.704 37.208C224.552 35.7573 223.976 33.6027 223.976 30.744C223.976 27.8853 224.552 25.7307 225.704 24.28C226.856 22.8293 228.402 22.104 230.344 22.104C231.56 22.104 232.573 22.392 233.384 22.968C234.194 23.5227 234.845 24.3013 235.336 25.304H235.528V15.32H239.016V39H235.528V36.184ZM231.784 36.536C232.296 36.536 232.776 36.472 233.224 36.344C233.672 36.216 234.066 36.024 234.408 35.768C234.749 35.512 235.016 35.2027 235.208 34.84C235.421 34.456 235.528 34.008 235.528 33.496V27.992C235.528 27.48 235.421 27.0427 235.208 26.68C235.016 26.296 234.749 25.976 234.408 25.72C234.066 25.464 233.672 25.272 233.224 25.144C232.776 25.016 232.296 24.952 231.784 24.952C230.461 24.952 229.437 25.3573 228.712 26.168C228.008 26.9787 227.656 28.056 227.656 29.4V32.088C227.656 33.432 228.008 34.5093 228.712 35.32C229.437 36.1307 230.461 36.536 231.784 36.536Z" fill="#252344"/>
</svg>
