<svg width="859" height="193" viewBox="0 0 859 193" fill="none" xmlns="http://www.w3.org/2000/svg">
<path d="M822.524 0H67.7118C54.214 0 42.5009 9.31244 39.4582 22.4628L8.22246 157.463C4.01693 175.639 17.8198 193 36.4761 193H791.288C804.786 193 816.499 183.688 819.542 170.537L850.778 35.5372C854.983 17.3611 841.18 0 822.524 0Z" fill="#0BDB84"/>
<g filter="url(#filter0_d_200_1892)">
<mask id="path-2-outside-1_200_1892" maskUnits="userSpaceOnUse" x="76.2854" y="20.5753" width="712" height="141" fill="black">
<rect fill="white" x="76.2854" y="20.5753" width="712" height="141"/>
<path d="M742.708 121.414C732.859 121.414 725.396 118.673 720.32 113.192C715.244 107.712 712.706 100.252 712.706 90.8127C712.706 86.017 713.35 81.7161 714.638 77.9101C716.001 74.0279 717.895 70.7546 720.32 68.0904C722.82 65.35 725.813 63.2947 729.298 61.9246C732.859 60.4782 736.836 59.7551 741.23 59.7551C745.625 59.7551 749.564 60.4782 753.05 61.9246C756.535 63.2947 759.489 65.2739 761.914 67.862C764.338 70.4502 766.195 73.6092 767.483 77.3392C768.846 80.993 769.528 85.1035 769.528 89.6708V94.6949H729.411V95.7225C729.411 99.5286 730.586 102.611 732.934 104.971C735.283 107.255 738.73 108.397 743.276 108.397C746.761 108.397 749.754 107.75 752.254 106.456C754.754 105.085 756.913 103.297 758.732 101.089L767.823 111.023C765.551 113.839 762.368 116.275 758.277 118.331C754.186 120.386 748.996 121.414 742.708 121.414ZM741.344 71.8584C737.707 71.8584 734.791 73.0002 732.594 75.2839C730.472 77.4914 729.411 80.4982 729.411 84.3043V85.2177H753.05V84.3043C753.05 80.4221 751.989 77.3772 749.868 75.1697C747.822 72.9622 744.981 71.8584 741.344 71.8584Z"/>
<path d="M672.186 120.205C665.683 120.205 660.012 119.215 655.173 117.236C650.409 115.257 646.817 112.554 644.398 109.129L653.812 100.337C656.08 102.849 658.727 104.828 661.751 106.274C664.851 107.644 668.367 108.33 672.299 108.33C675.626 108.33 678.235 107.835 680.125 106.845C682.016 105.779 682.961 104.181 682.961 102.05C682.961 100.375 682.318 99.233 681.033 98.6241C679.747 97.939 677.97 97.4061 675.702 97.0255L666.288 95.5412C663.641 95.1605 661.184 94.5896 658.916 93.8284C656.647 92.9911 654.681 91.8873 653.018 90.5171C651.354 89.1469 650.031 87.4723 649.048 85.4931C648.065 83.514 647.574 81.1161 647.574 78.2996C647.574 72.1338 649.918 67.3001 654.606 63.7985C659.294 60.2969 665.872 58.5461 674.341 58.5461C680.087 58.5461 684.965 59.3454 688.972 60.9439C693.055 62.4664 696.307 64.6739 698.726 67.5665L690.333 77.1578C688.594 75.2548 686.363 73.6562 683.641 72.3622C680.919 71.0681 677.63 70.4211 673.774 70.4211C667.271 70.4211 664.02 72.4002 664.02 76.3585C664.02 78.1093 664.662 79.3273 665.948 80.0124C667.233 80.6213 669.01 81.1161 671.278 81.4967L680.579 82.9811C683.225 83.3617 685.683 83.9707 687.951 84.808C690.22 85.5692 692.186 86.6349 693.849 88.0051C695.588 89.3753 696.949 91.05 697.932 93.0291C698.915 95.0083 699.407 97.4061 699.407 100.223C699.407 106.388 697.025 111.26 692.261 114.838C687.573 118.416 680.881 120.205 672.186 120.205Z"/>
<path d="M614.301 109.399H613.62C612.333 112.724 610.29 115.557 607.49 117.9C604.766 120.242 601.059 121.414 596.367 121.414C593.568 121.414 590.995 120.96 588.649 120.053C586.303 119.071 584.298 117.635 582.633 115.746C580.969 113.857 579.645 111.553 578.661 108.832C577.753 106.112 577.299 102.976 577.299 99.425V61.5686H594.097V97.1582C594.097 104.714 597.389 108.492 603.972 108.492C605.258 108.492 606.507 108.341 607.717 108.039C609.004 107.661 610.101 107.132 611.009 106.452C611.993 105.697 612.787 104.79 613.393 103.732C613.998 102.674 614.301 101.427 614.301 99.9917V61.5686H631.099V120.053H614.301V109.399Z"/>
<path d="M530.148 121.414C525.574 121.414 521.457 120.728 517.797 119.358C514.137 117.912 511.011 115.857 508.419 113.192C505.903 110.528 503.959 107.293 502.587 103.487C501.214 99.6808 500.528 95.38 500.528 90.5843C500.528 85.7886 501.214 81.4878 502.587 77.6817C503.959 73.8756 505.903 70.6405 508.419 67.9762C511.011 65.312 514.137 63.2947 517.797 61.9246C521.457 60.4782 525.574 59.7551 530.148 59.7551C534.723 59.7551 538.84 60.4782 542.5 61.9246C546.159 63.2947 549.247 65.312 551.763 67.9762C554.355 70.6405 556.338 73.8756 557.71 77.6817C559.082 81.4878 559.769 85.7886 559.769 90.5843C559.769 95.38 559.082 99.6808 557.71 103.487C556.338 107.293 554.355 110.528 551.763 113.192C549.247 115.857 546.159 117.912 542.5 119.358C538.84 120.728 534.723 121.414 530.148 121.414ZM530.148 108.853C533.96 108.853 536.934 107.674 539.069 105.314C541.203 102.954 542.271 99.6047 542.271 95.2658V85.9028C542.271 81.5639 541.203 78.2146 539.069 75.8548C536.934 73.495 533.96 72.3151 530.148 72.3151C526.336 72.3151 523.363 73.495 521.228 75.8548C519.093 78.2146 518.026 81.5639 518.026 85.9028V95.2658C518.026 99.6047 519.093 102.954 521.228 105.314C523.363 107.674 526.336 108.853 530.148 108.853Z"/>
<path d="M435.243 35.5753H452.041V71.943H452.722C453.403 70.2657 454.235 68.7027 455.219 67.2541C456.203 65.8055 457.376 64.5475 458.738 63.4801C460.175 62.3364 461.802 61.4597 463.618 60.8497C465.51 60.1635 467.629 59.8204 469.974 59.8204C472.774 59.8204 475.347 60.316 477.692 61.3072C480.038 62.2221 482.043 63.6326 483.708 65.5386C485.373 67.4447 486.659 69.7701 487.567 72.5148C488.551 75.2596 489.043 78.4236 489.043 82.007V120.205H472.244V84.2943C472.244 76.67 468.953 72.8579 462.37 72.8579C461.083 72.8579 459.797 73.0485 458.511 73.4297C457.3 73.7347 456.203 74.2684 455.219 75.0308C454.235 75.717 453.441 76.5938 452.836 77.6612C452.306 78.7286 452.041 79.9866 452.041 81.4352V120.205H435.243V35.5753Z"/>
<path d="M368.144 120.205V61.1289H384.942V71.8908H385.623C386.304 70.2116 387.137 68.647 388.12 67.1968C389.104 65.7466 390.277 64.4872 391.639 63.4187C393.076 62.2738 394.703 61.3961 396.519 60.7855C398.411 60.0985 400.53 59.7551 402.875 59.7551C405.675 59.7551 408.248 60.2512 410.594 61.2434C412.939 62.1593 414.945 63.5713 416.609 65.4795C418.274 67.3876 419.56 69.7155 420.468 72.4632C421.452 75.2109 421.944 78.3784 421.944 81.9657V120.205H405.146V84.2554C405.146 76.6229 401.854 72.8067 395.271 72.8067C393.984 72.8067 392.698 72.9975 391.412 73.3791C390.201 73.6844 389.104 74.2187 388.12 74.9819C387.137 75.6689 386.342 76.5466 385.737 77.6151C385.207 78.6837 384.942 79.9431 384.942 81.3932V120.205H368.144Z"/>
<path d="M327.739 121.414C317.785 121.414 310.243 118.673 305.113 113.192C299.983 107.712 297.418 100.252 297.418 90.8127C297.418 86.017 298.069 81.7161 299.37 77.9101C300.749 74.0279 302.663 70.7546 305.113 68.0904C307.64 65.35 310.664 63.2947 314.187 61.9246C317.785 60.4782 321.805 59.7551 326.246 59.7551C330.687 59.7551 334.669 60.4782 338.191 61.9246C341.713 63.2947 344.7 65.2739 347.15 67.862C349.6 70.4502 351.476 73.6092 352.778 77.3392C354.156 80.993 354.845 85.1035 354.845 89.6708V94.6949H314.301V95.7225C314.301 99.5286 315.488 102.611 317.862 104.971C320.236 107.255 323.72 108.397 328.314 108.397C331.836 108.397 334.86 107.75 337.387 106.456C339.914 105.085 342.096 103.297 343.934 101.089L353.122 111.023C350.825 113.839 347.609 116.275 343.474 118.331C339.34 120.386 334.095 121.414 327.739 121.414ZM326.361 71.8584C322.686 71.8584 319.738 73.0002 317.517 75.2839C315.373 77.4914 314.301 80.4982 314.301 84.3043V85.2177H338.191V84.3043C338.191 80.4221 337.119 77.3772 334.975 75.1697C332.908 72.9622 330.036 71.8584 326.361 71.8584Z"/>
<path d="M259.112 121.414C249.263 121.414 241.8 118.673 236.724 113.192C231.648 107.712 229.11 100.252 229.11 90.8127C229.11 86.017 229.754 81.7161 231.042 77.9101C232.406 74.0279 234.3 70.7546 236.724 68.0904C239.225 65.35 242.217 63.2947 245.702 61.9246C249.263 60.4782 253.241 59.7551 257.635 59.7551C262.029 59.7551 265.969 60.4782 269.454 61.9246C272.939 63.2947 275.894 65.2739 278.318 67.862C280.743 70.4502 282.599 73.6092 283.887 77.3392C285.251 80.993 285.933 85.1035 285.933 89.6708V94.6949H245.816V95.7225C245.816 99.5286 246.99 102.611 249.339 104.971C251.688 107.255 255.135 108.397 259.681 108.397C263.166 108.397 266.158 107.75 268.659 106.456C271.159 105.085 273.318 103.297 275.136 101.089L284.228 111.023C281.955 113.839 278.773 116.275 274.682 118.331C270.591 120.386 265.401 121.414 259.112 121.414ZM257.749 71.8584C254.112 71.8584 251.195 73.0002 248.998 75.2839C246.877 77.4914 245.816 80.4982 245.816 84.3043V85.2177H269.454V84.3043C269.454 80.4221 268.393 77.3772 266.272 75.1697C264.226 72.9622 261.385 71.8584 257.749 71.8584Z"/>
<path d="M163.22 107.136H176.782V74.6367H163.22V61.5686H193.648V78.1594H194.446C194.978 76.0382 195.699 73.9927 196.611 72.023C197.599 69.9776 198.814 68.1973 200.258 66.6822C201.777 65.0913 203.601 63.8413 205.728 62.9322C207.855 62.0231 210.363 61.5686 213.25 61.5686H218.834V77.023H206.298C202.119 77.023 198.966 78.273 196.839 80.773C194.712 83.1972 193.648 86.1896 193.648 89.7502V107.136H213.022V120.205H163.22V107.136Z"/>
<path d="M152.339 127.953C152.339 134.187 149.719 138.786 144.48 141.751C139.24 144.715 131.001 146.198 119.762 146.198C114.143 146.198 109.51 145.856 105.865 145.172C102.22 144.563 99.2968 143.651 97.0946 142.435C94.9683 141.219 93.4496 139.774 92.5383 138.102C91.703 136.429 91.2854 134.605 91.2854 132.628C91.2854 129.284 92.2726 126.737 94.2469 124.989C96.2213 123.316 98.993 122.024 102.562 121.112V120.427C100.056 119.667 98.0438 118.603 96.5251 117.235C95.0823 115.79 94.3608 113.776 94.3608 111.191C94.3608 108.302 95.3101 106.174 97.2085 104.806C99.1829 103.437 101.765 102.373 104.954 101.613V100.929C101.461 99.2563 98.7273 96.8997 96.7529 93.8589C94.8544 90.8182 93.9052 87.1313 93.9052 82.7982C93.9052 79.3774 94.5127 76.3747 95.7277 73.79C96.9427 71.1294 98.6513 68.9248 100.854 67.1764C103.132 65.428 105.827 64.0977 108.941 63.1854C112.054 62.2732 115.547 61.8171 119.42 61.8171C123.141 61.8171 126.596 62.2352 129.786 63.0714V59.8786C129.786 57.5981 130.583 55.6976 132.178 54.1772C133.773 52.6568 135.975 51.8967 138.784 51.8967H149.15V64.2117H135.026V65.2379C138.215 66.9103 140.683 69.2289 142.429 72.1936C144.252 75.0823 145.163 78.6172 145.163 82.7982C145.163 86.2191 144.556 89.2218 143.341 91.8064C142.126 94.3911 140.379 96.5956 138.101 98.4201C135.823 100.168 133.089 101.499 129.9 102.411C126.786 103.323 123.293 103.779 119.42 103.779C117.674 103.779 116.003 103.703 114.408 103.551C112.814 103.323 111.295 103.019 109.852 102.639C109.017 103.095 108.295 103.665 107.688 104.35C107.156 105.034 106.891 105.908 106.891 106.972C106.891 107.884 107.118 108.607 107.574 109.139C108.03 109.671 108.637 110.089 109.397 110.393C110.232 110.621 111.181 110.773 112.244 110.849C113.307 110.925 114.408 110.963 115.547 110.963H128.988C133.165 110.963 136.734 111.381 139.696 112.217C142.657 113.054 145.087 114.232 146.986 115.752C148.884 117.273 150.251 119.059 151.086 121.112C151.922 123.164 152.339 125.445 152.339 127.953ZM136.392 129.208C136.392 127.687 135.785 126.471 134.57 125.559C133.355 124.723 131.039 124.304 127.622 124.304H107.46C105.941 125.597 105.182 127.193 105.182 129.094C105.182 130.918 105.941 132.4 107.46 133.541C109.055 134.757 111.713 135.365 115.434 135.365H125.343C129.216 135.365 132.026 134.833 133.773 133.769C135.519 132.704 136.392 131.184 136.392 129.208ZM119.42 93.0608C122.837 93.0608 125.305 92.2245 126.824 90.5521C128.419 88.8797 129.216 86.7512 129.216 84.1666V81.4299C129.216 78.8453 128.419 76.7167 126.824 75.0443C125.305 73.3719 122.837 72.5357 119.42 72.5357C116.079 72.5357 113.649 73.3719 112.13 75.0443C110.612 76.7167 109.852 78.8453 109.852 81.4299V84.1666C109.852 86.7512 110.612 88.8797 112.13 90.5521C113.649 92.2245 116.079 93.0608 119.42 93.0608Z"/>
</mask>
<path d="M742.708 121.414C732.859 121.414 725.396 118.673 720.32 113.192C715.244 107.712 712.706 100.252 712.706 90.8127C712.706 86.017 713.35 81.7161 714.638 77.9101C716.001 74.0279 717.895 70.7546 720.32 68.0904C722.82 65.35 725.813 63.2947 729.298 61.9246C732.859 60.4782 736.836 59.7551 741.23 59.7551C745.625 59.7551 749.564 60.4782 753.05 61.9246C756.535 63.2947 759.489 65.2739 761.914 67.862C764.338 70.4502 766.195 73.6092 767.483 77.3392C768.846 80.993 769.528 85.1035 769.528 89.6708V94.6949H729.411V95.7225C729.411 99.5286 730.586 102.611 732.934 104.971C735.283 107.255 738.73 108.397 743.276 108.397C746.761 108.397 749.754 107.75 752.254 106.456C754.754 105.085 756.913 103.297 758.732 101.089L767.823 111.023C765.551 113.839 762.368 116.275 758.277 118.331C754.186 120.386 748.996 121.414 742.708 121.414ZM741.344 71.8584C737.707 71.8584 734.791 73.0002 732.594 75.2839C730.472 77.4914 729.411 80.4982 729.411 84.3043V85.2177H753.05V84.3043C753.05 80.4221 751.989 77.3772 749.868 75.1697C747.822 72.9622 744.981 71.8584 741.344 71.8584Z" fill="#0BDB84"/>
<path d="M672.186 120.205C665.683 120.205 660.012 119.215 655.173 117.236C650.409 115.257 646.817 112.554 644.398 109.129L653.812 100.337C656.08 102.849 658.727 104.828 661.751 106.274C664.851 107.644 668.367 108.33 672.299 108.33C675.626 108.33 678.235 107.835 680.125 106.845C682.016 105.779 682.961 104.181 682.961 102.05C682.961 100.375 682.318 99.233 681.033 98.6241C679.747 97.939 677.97 97.4061 675.702 97.0255L666.288 95.5412C663.641 95.1605 661.184 94.5896 658.916 93.8284C656.647 92.9911 654.681 91.8873 653.018 90.5171C651.354 89.1469 650.031 87.4723 649.048 85.4931C648.065 83.514 647.574 81.1161 647.574 78.2996C647.574 72.1338 649.918 67.3001 654.606 63.7985C659.294 60.2969 665.872 58.5461 674.341 58.5461C680.087 58.5461 684.965 59.3454 688.972 60.9439C693.055 62.4664 696.307 64.6739 698.726 67.5665L690.333 77.1578C688.594 75.2548 686.363 73.6562 683.641 72.3622C680.919 71.0681 677.63 70.4211 673.774 70.4211C667.271 70.4211 664.02 72.4002 664.02 76.3585C664.02 78.1093 664.662 79.3273 665.948 80.0124C667.233 80.6213 669.01 81.1161 671.278 81.4967L680.579 82.9811C683.225 83.3617 685.683 83.9707 687.951 84.808C690.22 85.5692 692.186 86.6349 693.849 88.0051C695.588 89.3753 696.949 91.05 697.932 93.0291C698.915 95.0083 699.407 97.4061 699.407 100.223C699.407 106.388 697.025 111.26 692.261 114.838C687.573 118.416 680.881 120.205 672.186 120.205Z" fill="#0BDB84"/>
<path d="M614.301 109.399H613.62C612.333 112.724 610.29 115.557 607.49 117.9C604.766 120.242 601.059 121.414 596.367 121.414C593.568 121.414 590.995 120.96 588.649 120.053C586.303 119.071 584.298 117.635 582.633 115.746C580.969 113.857 579.645 111.553 578.661 108.832C577.753 106.112 577.299 102.976 577.299 99.425V61.5686H594.097V97.1582C594.097 104.714 597.389 108.492 603.972 108.492C605.258 108.492 606.507 108.341 607.717 108.039C609.004 107.661 610.101 107.132 611.009 106.452C611.993 105.697 612.787 104.79 613.393 103.732C613.998 102.674 614.301 101.427 614.301 99.9917V61.5686H631.099V120.053H614.301V109.399Z" fill="#0BDB84"/>
<path d="M530.148 121.414C525.574 121.414 521.457 120.728 517.797 119.358C514.137 117.912 511.011 115.857 508.419 113.192C505.903 110.528 503.959 107.293 502.587 103.487C501.214 99.6808 500.528 95.38 500.528 90.5843C500.528 85.7886 501.214 81.4878 502.587 77.6817C503.959 73.8756 505.903 70.6405 508.419 67.9762C511.011 65.312 514.137 63.2947 517.797 61.9246C521.457 60.4782 525.574 59.7551 530.148 59.7551C534.723 59.7551 538.84 60.4782 542.5 61.9246C546.159 63.2947 549.247 65.312 551.763 67.9762C554.355 70.6405 556.338 73.8756 557.71 77.6817C559.082 81.4878 559.769 85.7886 559.769 90.5843C559.769 95.38 559.082 99.6808 557.71 103.487C556.338 107.293 554.355 110.528 551.763 113.192C549.247 115.857 546.159 117.912 542.5 119.358C538.84 120.728 534.723 121.414 530.148 121.414ZM530.148 108.853C533.96 108.853 536.934 107.674 539.069 105.314C541.203 102.954 542.271 99.6047 542.271 95.2658V85.9028C542.271 81.5639 541.203 78.2146 539.069 75.8548C536.934 73.495 533.96 72.3151 530.148 72.3151C526.336 72.3151 523.363 73.495 521.228 75.8548C519.093 78.2146 518.026 81.5639 518.026 85.9028V95.2658C518.026 99.6047 519.093 102.954 521.228 105.314C523.363 107.674 526.336 108.853 530.148 108.853Z" fill="#0BDB84"/>
<path d="M435.243 35.5753H452.041V71.943H452.722C453.403 70.2657 454.235 68.7027 455.219 67.2541C456.203 65.8055 457.376 64.5475 458.738 63.4801C460.175 62.3364 461.802 61.4597 463.618 60.8497C465.51 60.1635 467.629 59.8204 469.974 59.8204C472.774 59.8204 475.347 60.316 477.692 61.3072C480.038 62.2221 482.043 63.6326 483.708 65.5386C485.373 67.4447 486.659 69.7701 487.567 72.5148C488.551 75.2596 489.043 78.4236 489.043 82.007V120.205H472.244V84.2943C472.244 76.67 468.953 72.8579 462.37 72.8579C461.083 72.8579 459.797 73.0485 458.511 73.4297C457.3 73.7347 456.203 74.2684 455.219 75.0308C454.235 75.717 453.441 76.5938 452.836 77.6612C452.306 78.7286 452.041 79.9866 452.041 81.4352V120.205H435.243V35.5753Z" fill="#0BDB84"/>
<path d="M368.144 120.205V61.1289H384.942V71.8908H385.623C386.304 70.2116 387.137 68.647 388.12 67.1968C389.104 65.7466 390.277 64.4872 391.639 63.4187C393.076 62.2738 394.703 61.3961 396.519 60.7855C398.411 60.0985 400.53 59.7551 402.875 59.7551C405.675 59.7551 408.248 60.2512 410.594 61.2434C412.939 62.1593 414.945 63.5713 416.609 65.4795C418.274 67.3876 419.56 69.7155 420.468 72.4632C421.452 75.2109 421.944 78.3784 421.944 81.9657V120.205H405.146V84.2554C405.146 76.6229 401.854 72.8067 395.271 72.8067C393.984 72.8067 392.698 72.9975 391.412 73.3791C390.201 73.6844 389.104 74.2187 388.12 74.9819C387.137 75.6689 386.342 76.5466 385.737 77.6151C385.207 78.6837 384.942 79.9431 384.942 81.3932V120.205H368.144Z" fill="#0BDB84"/>
<path d="M327.739 121.414C317.785 121.414 310.243 118.673 305.113 113.192C299.983 107.712 297.418 100.252 297.418 90.8127C297.418 86.017 298.069 81.7161 299.37 77.9101C300.749 74.0279 302.663 70.7546 305.113 68.0904C307.64 65.35 310.664 63.2947 314.187 61.9246C317.785 60.4782 321.805 59.7551 326.246 59.7551C330.687 59.7551 334.669 60.4782 338.191 61.9246C341.713 63.2947 344.7 65.2739 347.15 67.862C349.6 70.4502 351.476 73.6092 352.778 77.3392C354.156 80.993 354.845 85.1035 354.845 89.6708V94.6949H314.301V95.7225C314.301 99.5286 315.488 102.611 317.862 104.971C320.236 107.255 323.72 108.397 328.314 108.397C331.836 108.397 334.86 107.75 337.387 106.456C339.914 105.085 342.096 103.297 343.934 101.089L353.122 111.023C350.825 113.839 347.609 116.275 343.474 118.331C339.34 120.386 334.095 121.414 327.739 121.414ZM326.361 71.8584C322.686 71.8584 319.738 73.0002 317.517 75.2839C315.373 77.4914 314.301 80.4982 314.301 84.3043V85.2177H338.191V84.3043C338.191 80.4221 337.119 77.3772 334.975 75.1697C332.908 72.9622 330.036 71.8584 326.361 71.8584Z" fill="#0BDB84"/>
<path d="M259.112 121.414C249.263 121.414 241.8 118.673 236.724 113.192C231.648 107.712 229.11 100.252 229.11 90.8127C229.11 86.017 229.754 81.7161 231.042 77.9101C232.406 74.0279 234.3 70.7546 236.724 68.0904C239.225 65.35 242.217 63.2947 245.702 61.9246C249.263 60.4782 253.241 59.7551 257.635 59.7551C262.029 59.7551 265.969 60.4782 269.454 61.9246C272.939 63.2947 275.894 65.2739 278.318 67.862C280.743 70.4502 282.599 73.6092 283.887 77.3392C285.251 80.993 285.933 85.1035 285.933 89.6708V94.6949H245.816V95.7225C245.816 99.5286 246.99 102.611 249.339 104.971C251.688 107.255 255.135 108.397 259.681 108.397C263.166 108.397 266.158 107.75 268.659 106.456C271.159 105.085 273.318 103.297 275.136 101.089L284.228 111.023C281.955 113.839 278.773 116.275 274.682 118.331C270.591 120.386 265.401 121.414 259.112 121.414ZM257.749 71.8584C254.112 71.8584 251.195 73.0002 248.998 75.2839C246.877 77.4914 245.816 80.4982 245.816 84.3043V85.2177H269.454V84.3043C269.454 80.4221 268.393 77.3772 266.272 75.1697C264.226 72.9622 261.385 71.8584 257.749 71.8584Z" fill="#0BDB84"/>
<path d="M163.22 107.136H176.782V74.6367H163.22V61.5686H193.648V78.1594H194.446C194.978 76.0382 195.699 73.9927 196.611 72.023C197.599 69.9776 198.814 68.1973 200.258 66.6822C201.777 65.0913 203.601 63.8413 205.728 62.9322C207.855 62.0231 210.363 61.5686 213.25 61.5686H218.834V77.023H206.298C202.119 77.023 198.966 78.273 196.839 80.773C194.712 83.1972 193.648 86.1896 193.648 89.7502V107.136H213.022V120.205H163.22V107.136Z" fill="#0BDB84"/>
<path d="M152.339 127.953C152.339 134.187 149.719 138.786 144.48 141.751C139.24 144.715 131.001 146.198 119.762 146.198C114.143 146.198 109.51 145.856 105.865 145.172C102.22 144.563 99.2968 143.651 97.0946 142.435C94.9683 141.219 93.4496 139.774 92.5383 138.102C91.703 136.429 91.2854 134.605 91.2854 132.628C91.2854 129.284 92.2726 126.737 94.2469 124.989C96.2213 123.316 98.993 122.024 102.562 121.112V120.427C100.056 119.667 98.0438 118.603 96.5251 117.235C95.0823 115.79 94.3608 113.776 94.3608 111.191C94.3608 108.302 95.3101 106.174 97.2085 104.806C99.1829 103.437 101.765 102.373 104.954 101.613V100.929C101.461 99.2563 98.7273 96.8997 96.7529 93.8589C94.8544 90.8182 93.9052 87.1313 93.9052 82.7982C93.9052 79.3774 94.5127 76.3747 95.7277 73.79C96.9427 71.1294 98.6513 68.9248 100.854 67.1764C103.132 65.428 105.827 64.0977 108.941 63.1854C112.054 62.2732 115.547 61.8171 119.42 61.8171C123.141 61.8171 126.596 62.2352 129.786 63.0714V59.8786C129.786 57.5981 130.583 55.6976 132.178 54.1772C133.773 52.6568 135.975 51.8967 138.784 51.8967H149.15V64.2117H135.026V65.2379C138.215 66.9103 140.683 69.2289 142.429 72.1936C144.252 75.0823 145.163 78.6172 145.163 82.7982C145.163 86.2191 144.556 89.2218 143.341 91.8064C142.126 94.3911 140.379 96.5956 138.101 98.4201C135.823 100.168 133.089 101.499 129.9 102.411C126.786 103.323 123.293 103.779 119.42 103.779C117.674 103.779 116.003 103.703 114.408 103.551C112.814 103.323 111.295 103.019 109.852 102.639C109.017 103.095 108.295 103.665 107.688 104.35C107.156 105.034 106.891 105.908 106.891 106.972C106.891 107.884 107.118 108.607 107.574 109.139C108.03 109.671 108.637 110.089 109.397 110.393C110.232 110.621 111.181 110.773 112.244 110.849C113.307 110.925 114.408 110.963 115.547 110.963H128.988C133.165 110.963 136.734 111.381 139.696 112.217C142.657 113.054 145.087 114.232 146.986 115.752C148.884 117.273 150.251 119.059 151.086 121.112C151.922 123.164 152.339 125.445 152.339 127.953ZM136.392 129.208C136.392 127.687 135.785 126.471 134.57 125.559C133.355 124.723 131.039 124.304 127.622 124.304H107.46C105.941 125.597 105.182 127.193 105.182 129.094C105.182 130.918 105.941 132.4 107.46 133.541C109.055 134.757 111.713 135.365 115.434 135.365H125.343C129.216 135.365 132.026 134.833 133.773 133.769C135.519 132.704 136.392 131.184 136.392 129.208ZM119.42 93.0608C122.837 93.0608 125.305 92.2245 126.824 90.5521C128.419 88.8797 129.216 86.7512 129.216 84.1666V81.4299C129.216 78.8453 128.419 76.7167 126.824 75.0443C125.305 73.3719 122.837 72.5357 119.42 72.5357C116.079 72.5357 113.649 73.3719 112.13 75.0443C110.612 76.7167 109.852 78.8453 109.852 81.4299V84.1666C109.852 86.7512 110.612 88.8797 112.13 90.5521C113.649 92.2245 116.079 93.0608 119.42 93.0608Z" fill="#0BDB84"/>
<path d="M742.708 121.414C732.859 121.414 725.396 118.673 720.32 113.192C715.244 107.712 712.706 100.252 712.706 90.8127C712.706 86.017 713.35 81.7161 714.638 77.9101C716.001 74.0279 717.895 70.7546 720.32 68.0904C722.82 65.35 725.813 63.2947 729.298 61.9246C732.859 60.4782 736.836 59.7551 741.23 59.7551C745.625 59.7551 749.564 60.4782 753.05 61.9246C756.535 63.2947 759.489 65.2739 761.914 67.862C764.338 70.4502 766.195 73.6092 767.483 77.3392C768.846 80.993 769.528 85.1035 769.528 89.6708V94.6949H729.411V95.7225C729.411 99.5286 730.586 102.611 732.934 104.971C735.283 107.255 738.73 108.397 743.276 108.397C746.761 108.397 749.754 107.75 752.254 106.456C754.754 105.085 756.913 103.297 758.732 101.089L767.823 111.023C765.551 113.839 762.368 116.275 758.277 118.331C754.186 120.386 748.996 121.414 742.708 121.414ZM741.344 71.8584C737.707 71.8584 734.791 73.0002 732.594 75.2839C730.472 77.4914 729.411 80.4982 729.411 84.3043V85.2177H753.05V84.3043C753.05 80.4221 751.989 77.3772 749.868 75.1697C747.822 72.9622 744.981 71.8584 741.344 71.8584Z" stroke="#0B0A18" stroke-width="30" mask="url(#path-2-outside-1_200_1892)"/>
<path d="M672.186 120.205C665.683 120.205 660.012 119.215 655.173 117.236C650.409 115.257 646.817 112.554 644.398 109.129L653.812 100.337C656.08 102.849 658.727 104.828 661.751 106.274C664.851 107.644 668.367 108.33 672.299 108.33C675.626 108.33 678.235 107.835 680.125 106.845C682.016 105.779 682.961 104.181 682.961 102.05C682.961 100.375 682.318 99.233 681.033 98.6241C679.747 97.939 677.97 97.4061 675.702 97.0255L666.288 95.5412C663.641 95.1605 661.184 94.5896 658.916 93.8284C656.647 92.9911 654.681 91.8873 653.018 90.5171C651.354 89.1469 650.031 87.4723 649.048 85.4931C648.065 83.514 647.574 81.1161 647.574 78.2996C647.574 72.1338 649.918 67.3001 654.606 63.7985C659.294 60.2969 665.872 58.5461 674.341 58.5461C680.087 58.5461 684.965 59.3454 688.972 60.9439C693.055 62.4664 696.307 64.6739 698.726 67.5665L690.333 77.1578C688.594 75.2548 686.363 73.6562 683.641 72.3622C680.919 71.0681 677.63 70.4211 673.774 70.4211C667.271 70.4211 664.02 72.4002 664.02 76.3585C664.02 78.1093 664.662 79.3273 665.948 80.0124C667.233 80.6213 669.01 81.1161 671.278 81.4967L680.579 82.9811C683.225 83.3617 685.683 83.9707 687.951 84.808C690.22 85.5692 692.186 86.6349 693.849 88.0051C695.588 89.3753 696.949 91.05 697.932 93.0291C698.915 95.0083 699.407 97.4061 699.407 100.223C699.407 106.388 697.025 111.26 692.261 114.838C687.573 118.416 680.881 120.205 672.186 120.205Z" stroke="#0B0A18" stroke-width="30" mask="url(#path-2-outside-1_200_1892)"/>
<path d="M614.301 109.399H613.62C612.333 112.724 610.29 115.557 607.49 117.9C604.766 120.242 601.059 121.414 596.367 121.414C593.568 121.414 590.995 120.96 588.649 120.053C586.303 119.071 584.298 117.635 582.633 115.746C580.969 113.857 579.645 111.553 578.661 108.832C577.753 106.112 577.299 102.976 577.299 99.425V61.5686H594.097V97.1582C594.097 104.714 597.389 108.492 603.972 108.492C605.258 108.492 606.507 108.341 607.717 108.039C609.004 107.661 610.101 107.132 611.009 106.452C611.993 105.697 612.787 104.79 613.393 103.732C613.998 102.674 614.301 101.427 614.301 99.9917V61.5686H631.099V120.053H614.301V109.399Z" stroke="#0B0A18" stroke-width="30" mask="url(#path-2-outside-1_200_1892)"/>
<path d="M530.148 121.414C525.574 121.414 521.457 120.728 517.797 119.358C514.137 117.912 511.011 115.857 508.419 113.192C505.903 110.528 503.959 107.293 502.587 103.487C501.214 99.6808 500.528 95.38 500.528 90.5843C500.528 85.7886 501.214 81.4878 502.587 77.6817C503.959 73.8756 505.903 70.6405 508.419 67.9762C511.011 65.312 514.137 63.2947 517.797 61.9246C521.457 60.4782 525.574 59.7551 530.148 59.7551C534.723 59.7551 538.84 60.4782 542.5 61.9246C546.159 63.2947 549.247 65.312 551.763 67.9762C554.355 70.6405 556.338 73.8756 557.71 77.6817C559.082 81.4878 559.769 85.7886 559.769 90.5843C559.769 95.38 559.082 99.6808 557.71 103.487C556.338 107.293 554.355 110.528 551.763 113.192C549.247 115.857 546.159 117.912 542.5 119.358C538.84 120.728 534.723 121.414 530.148 121.414ZM530.148 108.853C533.96 108.853 536.934 107.674 539.069 105.314C541.203 102.954 542.271 99.6047 542.271 95.2658V85.9028C542.271 81.5639 541.203 78.2146 539.069 75.8548C536.934 73.495 533.96 72.3151 530.148 72.3151C526.336 72.3151 523.363 73.495 521.228 75.8548C519.093 78.2146 518.026 81.5639 518.026 85.9028V95.2658C518.026 99.6047 519.093 102.954 521.228 105.314C523.363 107.674 526.336 108.853 530.148 108.853Z" stroke="#0B0A18" stroke-width="30" mask="url(#path-2-outside-1_200_1892)"/>
<path d="M435.243 35.5753H452.041V71.943H452.722C453.403 70.2657 454.235 68.7027 455.219 67.2541C456.203 65.8055 457.376 64.5475 458.738 63.4801C460.175 62.3364 461.802 61.4597 463.618 60.8497C465.51 60.1635 467.629 59.8204 469.974 59.8204C472.774 59.8204 475.347 60.316 477.692 61.3072C480.038 62.2221 482.043 63.6326 483.708 65.5386C485.373 67.4447 486.659 69.7701 487.567 72.5148C488.551 75.2596 489.043 78.4236 489.043 82.007V120.205H472.244V84.2943C472.244 76.67 468.953 72.8579 462.37 72.8579C461.083 72.8579 459.797 73.0485 458.511 73.4297C457.3 73.7347 456.203 74.2684 455.219 75.0308C454.235 75.717 453.441 76.5938 452.836 77.6612C452.306 78.7286 452.041 79.9866 452.041 81.4352V120.205H435.243V35.5753Z" stroke="#0B0A18" stroke-width="30" mask="url(#path-2-outside-1_200_1892)"/>
<path d="M368.144 120.205V61.1289H384.942V71.8908H385.623C386.304 70.2116 387.137 68.647 388.12 67.1968C389.104 65.7466 390.277 64.4872 391.639 63.4187C393.076 62.2738 394.703 61.3961 396.519 60.7855C398.411 60.0985 400.53 59.7551 402.875 59.7551C405.675 59.7551 408.248 60.2512 410.594 61.2434C412.939 62.1593 414.945 63.5713 416.609 65.4795C418.274 67.3876 419.56 69.7155 420.468 72.4632C421.452 75.2109 421.944 78.3784 421.944 81.9657V120.205H405.146V84.2554C405.146 76.6229 401.854 72.8067 395.271 72.8067C393.984 72.8067 392.698 72.9975 391.412 73.3791C390.201 73.6844 389.104 74.2187 388.12 74.9819C387.137 75.6689 386.342 76.5466 385.737 77.6151C385.207 78.6837 384.942 79.9431 384.942 81.3932V120.205H368.144Z" stroke="#0B0A18" stroke-width="30" mask="url(#path-2-outside-1_200_1892)"/>
<path d="M327.739 121.414C317.785 121.414 310.243 118.673 305.113 113.192C299.983 107.712 297.418 100.252 297.418 90.8127C297.418 86.017 298.069 81.7161 299.37 77.9101C300.749 74.0279 302.663 70.7546 305.113 68.0904C307.64 65.35 310.664 63.2947 314.187 61.9246C317.785 60.4782 321.805 59.7551 326.246 59.7551C330.687 59.7551 334.669 60.4782 338.191 61.9246C341.713 63.2947 344.7 65.2739 347.15 67.862C349.6 70.4502 351.476 73.6092 352.778 77.3392C354.156 80.993 354.845 85.1035 354.845 89.6708V94.6949H314.301V95.7225C314.301 99.5286 315.488 102.611 317.862 104.971C320.236 107.255 323.72 108.397 328.314 108.397C331.836 108.397 334.86 107.75 337.387 106.456C339.914 105.085 342.096 103.297 343.934 101.089L353.122 111.023C350.825 113.839 347.609 116.275 343.474 118.331C339.34 120.386 334.095 121.414 327.739 121.414ZM326.361 71.8584C322.686 71.8584 319.738 73.0002 317.517 75.2839C315.373 77.4914 314.301 80.4982 314.301 84.3043V85.2177H338.191V84.3043C338.191 80.4221 337.119 77.3772 334.975 75.1697C332.908 72.9622 330.036 71.8584 326.361 71.8584Z" stroke="#0B0A18" stroke-width="30" mask="url(#path-2-outside-1_200_1892)"/>
<path d="M259.112 121.414C249.263 121.414 241.8 118.673 236.724 113.192C231.648 107.712 229.11 100.252 229.11 90.8127C229.11 86.017 229.754 81.7161 231.042 77.9101C232.406 74.0279 234.3 70.7546 236.724 68.0904C239.225 65.35 242.217 63.2947 245.702 61.9246C249.263 60.4782 253.241 59.7551 257.635 59.7551C262.029 59.7551 265.969 60.4782 269.454 61.9246C272.939 63.2947 275.894 65.2739 278.318 67.862C280.743 70.4502 282.599 73.6092 283.887 77.3392C285.251 80.993 285.933 85.1035 285.933 89.6708V94.6949H245.816V95.7225C245.816 99.5286 246.99 102.611 249.339 104.971C251.688 107.255 255.135 108.397 259.681 108.397C263.166 108.397 266.158 107.75 268.659 106.456C271.159 105.085 273.318 103.297 275.136 101.089L284.228 111.023C281.955 113.839 278.773 116.275 274.682 118.331C270.591 120.386 265.401 121.414 259.112 121.414ZM257.749 71.8584C254.112 71.8584 251.195 73.0002 248.998 75.2839C246.877 77.4914 245.816 80.4982 245.816 84.3043V85.2177H269.454V84.3043C269.454 80.4221 268.393 77.3772 266.272 75.1697C264.226 72.9622 261.385 71.8584 257.749 71.8584Z" stroke="#0B0A18" stroke-width="30" mask="url(#path-2-outside-1_200_1892)"/>
<path d="M163.22 107.136H176.782V74.6367H163.22V61.5686H193.648V78.1594H194.446C194.978 76.0382 195.699 73.9927 196.611 72.023C197.599 69.9776 198.814 68.1973 200.258 66.6822C201.777 65.0913 203.601 63.8413 205.728 62.9322C207.855 62.0231 210.363 61.5686 213.25 61.5686H218.834V77.023H206.298C202.119 77.023 198.966 78.273 196.839 80.773C194.712 83.1972 193.648 86.1896 193.648 89.7502V107.136H213.022V120.205H163.22V107.136Z" stroke="#0B0A18" stroke-width="30" mask="url(#path-2-outside-1_200_1892)"/>
<path d="M152.339 127.953C152.339 134.187 149.719 138.786 144.48 141.751C139.24 144.715 131.001 146.198 119.762 146.198C114.143 146.198 109.51 145.856 105.865 145.172C102.22 144.563 99.2968 143.651 97.0946 142.435C94.9683 141.219 93.4496 139.774 92.5383 138.102C91.703 136.429 91.2854 134.605 91.2854 132.628C91.2854 129.284 92.2726 126.737 94.2469 124.989C96.2213 123.316 98.993 122.024 102.562 121.112V120.427C100.056 119.667 98.0438 118.603 96.5251 117.235C95.0823 115.79 94.3608 113.776 94.3608 111.191C94.3608 108.302 95.3101 106.174 97.2085 104.806C99.1829 103.437 101.765 102.373 104.954 101.613V100.929C101.461 99.2563 98.7273 96.8997 96.7529 93.8589C94.8544 90.8182 93.9052 87.1313 93.9052 82.7982C93.9052 79.3774 94.5127 76.3747 95.7277 73.79C96.9427 71.1294 98.6513 68.9248 100.854 67.1764C103.132 65.428 105.827 64.0977 108.941 63.1854C112.054 62.2732 115.547 61.8171 119.42 61.8171C123.141 61.8171 126.596 62.2352 129.786 63.0714V59.8786C129.786 57.5981 130.583 55.6976 132.178 54.1772C133.773 52.6568 135.975 51.8967 138.784 51.8967H149.15V64.2117H135.026V65.2379C138.215 66.9103 140.683 69.2289 142.429 72.1936C144.252 75.0823 145.163 78.6172 145.163 82.7982C145.163 86.2191 144.556 89.2218 143.341 91.8064C142.126 94.3911 140.379 96.5956 138.101 98.4201C135.823 100.168 133.089 101.499 129.9 102.411C126.786 103.323 123.293 103.779 119.42 103.779C117.674 103.779 116.003 103.703 114.408 103.551C112.814 103.323 111.295 103.019 109.852 102.639C109.017 103.095 108.295 103.665 107.688 104.35C107.156 105.034 106.891 105.908 106.891 106.972C106.891 107.884 107.118 108.607 107.574 109.139C108.03 109.671 108.637 110.089 109.397 110.393C110.232 110.621 111.181 110.773 112.244 110.849C113.307 110.925 114.408 110.963 115.547 110.963H128.988C133.165 110.963 136.734 111.381 139.696 112.217C142.657 113.054 145.087 114.232 146.986 115.752C148.884 117.273 150.251 119.059 151.086 121.112C151.922 123.164 152.339 125.445 152.339 127.953ZM136.392 129.208C136.392 127.687 135.785 126.471 134.57 125.559C133.355 124.723 131.039 124.304 127.622 124.304H107.46C105.941 125.597 105.182 127.193 105.182 129.094C105.182 130.918 105.941 132.4 107.46 133.541C109.055 134.757 111.713 135.365 115.434 135.365H125.343C129.216 135.365 132.026 134.833 133.773 133.769C135.519 132.704 136.392 131.184 136.392 129.208ZM119.42 93.0608C122.837 93.0608 125.305 92.2245 126.824 90.5521C128.419 88.8797 129.216 86.7512 129.216 84.1666V81.4299C129.216 78.8453 128.419 76.7167 126.824 75.0443C125.305 73.3719 122.837 72.5357 119.42 72.5357C116.079 72.5357 113.649 73.3719 112.13 75.0443C110.612 76.7167 109.852 78.8453 109.852 81.4299V84.1666C109.852 86.7512 110.612 88.8797 112.13 90.5521C113.649 92.2245 116.079 93.0608 119.42 93.0608Z" stroke="#0B0A18" stroke-width="30" mask="url(#path-2-outside-1_200_1892)"/>
</g>
<defs>
<filter id="filter0_d_200_1892" x="61.2854" y="20.5753" width="726.309" height="160.622" filterUnits="userSpaceOnUse" color-interpolation-filters="sRGB">
<feFlood flood-opacity="0" result="BackgroundImageFix"/>
<feColorMatrix in="SourceAlpha" type="matrix" values="0 0 0 0 0 0 0 0 0 0 0 0 0 0 0 0 0 0 127 0" result="hardAlpha"/>
<feOffset dx="-15" dy="20"/>
<feComposite in2="hardAlpha" operator="out"/>
<feColorMatrix type="matrix" values="0 0 0 0 0.0431373 0 0 0 0 0.0392157 0 0 0 0 0.0941176 0 0 0 1 0"/>
<feBlend mode="normal" in2="BackgroundImageFix" result="effect1_dropShadow_200_1892"/>
<feBlend mode="normal" in="SourceGraphic" in2="effect1_dropShadow_200_1892" result="shape"/>
</filter>
</defs>
</svg>
